<svg xmlns="http://www.w3.org/2000/svg" viewBox="0 0 1440 900" role="img" aria-labelledby="diagram-title diagram-description">
  <title id="diagram-title">Pod-Based Global DNS for Azure Landing Zones</title>
  <desc id="diagram-description">Architecture diagram showing example.com at an external DNS provider, zone1 delegated through NS records to Azure DNS, a public API name, and private resolution through Azure DNS Private Resolver, Azure Private DNS and Private Link zones to an application spoke virtual network. Zone2 and zone3 show additional neutral platform boundaries.</desc>
  <defs>
    <marker id="arrow-blue" markerWidth="10" markerHeight="10" refX="9" refY="5" orient="auto">
      <path d="M0,0 L10,5 L0,10 Z" fill="#2563eb"/>
    </marker>
    <marker id="arrow-slate" markerWidth="10" markerHeight="10" refX="9" refY="5" orient="auto">
      <path d="M0,0 L10,5 L0,10 Z" fill="#0f766e"/>
    </marker>
    <style>
      .title { font: 700 30px Arial, sans-serif; fill: #0f172a; }
      .subtitle { font: 400 16px Arial, sans-serif; fill: #475569; }
      .lane { font: 700 13px Arial, sans-serif; letter-spacing: 1px; fill: #64748b; }
      .box-title { font: 700 17px Arial, sans-serif; fill: #0f172a; }
      .box-copy { font: 400 14px Arial, sans-serif; fill: #334155; }
      .box-small { font: 400 13px Arial, sans-serif; fill: #475569; }
      .label { font: 700 13px Arial, sans-serif; fill: #2563eb; }
      .label-muted { font: 600 12px Arial, sans-serif; fill: #64748b; }
      .note { font: 600 14px Arial, sans-serif; fill: #334155; }
      .public { fill: #eff6ff; stroke: #93c5fd; stroke-width: 2; }
      .private { fill: #f0fdfa; stroke: #5eead4; stroke-width: 2; }
      .external { fill: #ffffff; stroke: #cbd5e1; stroke-width: 2; }
      .boundary { fill: #f8fafc; stroke: #cbd5e1; stroke-width: 1.5; }
      .highlight { fill: #eef2ff; stroke: #a5b4fc; stroke-width: 2; }
      .callout { fill: #f8fafc; stroke: #e2e8f0; stroke-width: 1.5; }
      .solid { stroke: #2563eb; stroke-width: 2.5; fill: none; marker-end: url(#arrow-blue); }
      .private-path { stroke: #0f766e; stroke-width: 2.5; fill: none; marker-end: url(#arrow-slate); }
      .dashed { stroke: #94a3b8; stroke-width: 2; fill: none; stroke-dasharray: 7 7; marker-end: url(#arrow-slate); }
    </style>
  </defs>

  <rect width="1440" height="900" fill="#ffffff"/>
  <text class="title" x="52" y="54">Pod-Based Global DNS for Azure Landing Zones</text>
  <text class="subtitle" x="52" y="84">Public delegation and private resolution stay separate while ownership follows stable platform boundaries.</text>

  <text class="lane" x="52" y="132">PUBLIC DNS OWNERSHIP</text>
  <rect class="external" x="52" y="158" rx="12" width="272" height="108"/>
  <text class="box-title" x="74" y="193">External DNS provider</text>
  <text class="box-copy" x="74" y="224">example.com parent zone</text>
  <text class="box-small" x="74" y="246">Retains parent-domain control</text>

  <rect class="public" x="414" y="158" rx="12" width="280" height="108"/>
  <text class="box-title" x="436" y="193">Azure DNS public zone</text>
  <text class="box-copy" x="436" y="224">zone1.example.com</text>
  <text class="box-small" x="436" y="246">Delegated platform boundary</text>

  <rect class="public" x="790" y="158" rx="12" width="348" height="108"/>
  <text class="box-title" x="812" y="193">Public API endpoint</text>
  <text class="box-copy" x="812" y="224">api.app1.zone1.example.com</text>
  <text class="box-small" x="812" y="246">Only when intentionally public</text>

  <path class="solid" d="M324 212 H414"/>
  <text class="label" x="338" y="197">NS delegation</text>
  <path class="solid" d="M694 212 H790"/>
  <text class="label" x="714" y="197">CNAME / A</text>

  <rect class="boundary" x="1180" y="158" rx="10" width="206" height="48"/>
  <text class="box-small" x="1202" y="188">zone2.example.com</text>
  <rect class="boundary" x="1180" y="218" rx="10" width="206" height="48"/>
  <text class="box-small" x="1202" y="248">zone3.example.com</text>
  <path class="dashed" d="M324 238 H362 V297 H1150 V182 H1180"/>
  <path class="dashed" d="M1150 182 V242 H1180"/>
  <text class="label-muted" x="931" y="289">optional sibling delegations</text>

  <text class="lane" x="52" y="369">PRIVATE RESOLUTION PATH</text>
  <rect class="external" x="52" y="424" rx="12" width="240" height="112"/>
  <text class="box-title" x="74" y="462">Hybrid DNS clients</text>
  <text class="box-copy" x="74" y="492">On-premises or</text>
  <text class="box-copy" x="74" y="514">connected networks</text>

  <rect class="highlight" x="378" y="404" rx="12" width="304" height="152"/>
  <text class="box-title" x="400" y="439">Azure DNS Private Resolver</text>
  <text class="box-copy" x="400" y="474">Inbound endpoint</text>
  <text class="box-copy" x="400" y="500">Outbound endpoint</text>
  <text class="box-copy" x="400" y="526">Forwarding ruleset</text>

  <rect class="private" x="770" y="376" rx="12" width="334" height="112"/>
  <text class="box-title" x="792" y="414">Private application zone</text>
  <text class="box-copy" x="792" y="444">app1.zone1.example.com</text>
  <text class="box-small" x="792" y="466">Internal service names</text>

  <rect class="private" x="770" y="518" rx="12" width="334" height="146"/>
  <text class="box-title" x="792" y="554">Private Link DNS zones</text>
  <text class="box-small" x="792" y="582">privatelink.database.windows.net</text>
  <text class="box-small" x="792" y="605">privatelink.blob.core.windows.net</text>
  <text class="box-small" x="792" y="628">privatelink.vaultcore.azure.net</text>

  <rect class="highlight" x="1180" y="447" rx="12" width="206" height="146"/>
  <text class="box-title" x="1202" y="485">Application spoke</text>
  <text class="box-copy" x="1202" y="516">VNet links</text>
  <text class="box-copy" x="1202" y="542">Private endpoints</text>
  <text class="box-small" x="1202" y="568">Workload connectivity</text>

  <path class="private-path" d="M292 480 H378"/>
  <text class="label-muted" x="296" y="466">conditional forwarding</text>
  <path class="private-path" d="M682 447 H770"/>
  <text class="label-muted" x="694" y="431">private zone lookup</text>
  <path class="private-path" d="M682 513 H724 V592 H770"/>
  <text class="label-muted" x="696" y="575">PaaS lookup</text>
  <path class="private-path" d="M1104 432 H1140 V492 H1180"/>
  <text class="label-muted" x="1114" y="418">VNet link</text>
  <path class="private-path" d="M1104 592 H1180"/>
  <text class="label-muted" x="1114" y="578">zone group</text>

  <rect class="callout" x="52" y="742" rx="12" width="1334" height="94"/>
  <text class="note" x="78" y="780">Architecture takeaway</text>
  <text class="box-copy" x="78" y="810">Public NS delegation establishes external ownership boundaries. Private DNS VNet links and resolver paths control internal visibility.</text>
</svg>
